<svg width="33" height="48" viewBox="0 0 33 48" fill="none" xmlns="http://www.w3.org/2000/svg">
<path d="M32.1605 15.4065C31.6349 14.8978 30.9451 14.6252 30.2154 14.6376L23.2858 14.6642L17.0897 11.0133C16.3962 10.6047 15.5437 10.4143 14.4064 10.4143C13.0712 10.4143 11.9675 10.8489 11.1413 11.6553L8.02502 11.6552C5.93391 11.6552 4.23262 13.3667 4.23262 15.4703V16.7504H4.23069C2.79164 16.7504 1.62081 17.9282 1.62081 19.3758V23.8165C1.62081 25.2642 2.79164 26.4419 4.23069 26.4419H9.76012C9.99366 27.21 10.3538 27.8501 10.846 28.3654L8.13706 36.7093L1.09306 42.68C0.478567 43.186 0.0959853 43.9021 0.0156247 44.6971C-0.064929 45.4941 0.167846 46.2749 0.670969 46.8958C1.25957 47.622 2.11843 47.9985 2.98443 47.9985C3.64682 47.9985 4.31337 47.778 4.86556 47.3251C4.86826 47.3228 4.87106 47.3206 4.87367 47.3183L13.0901 40.361C13.1832 40.2821 13.2534 40.1795 13.2933 40.0639L16.6638 30.307L22.0676 36.3631L23.6855 45.485C23.8138 46.2735 24.2389 46.9649 24.8833 47.4325C25.3966 47.805 26.0002 48 26.6211 48C26.7812 48 26.9425 47.9871 27.1037 47.9608C27.8898 47.8329 28.5794 47.4046 29.0453 46.7549C29.5112 46.1053 29.6978 45.3119 29.5705 44.5211C29.57 44.5176 29.5694 44.5141 29.5687 44.5106L27.6876 33.8737C27.6662 33.7533 27.613 33.6407 27.5334 33.5481L20.6739 25.5641V19.5283L21.659 20.0917C21.7609 20.1499 21.876 20.1806 21.9931 20.1806H21.996L30.3053 20.1446C30.3087 20.1446 30.312 20.1445 30.3154 20.1445C31.8246 20.1152 33.0286 18.8561 32.9995 17.3378C32.9856 16.6023 32.6875 15.9164 32.1605 15.4065ZM4.23079 25.0816C3.53729 25.0816 2.97313 24.5141 2.97313 23.8165V19.3758C2.97313 18.6783 3.53729 18.1107 4.23079 18.1107H4.90883C5.28224 18.1107 5.58494 17.8062 5.58494 17.4306V15.4703C5.58494 14.1167 6.67956 13.0156 8.02512 13.0156H10.1738C9.69086 14.0041 9.43346 15.2515 9.43346 16.7193V23.9514C9.43346 24.3486 9.45287 24.725 9.49102 25.0816H4.23079ZM12.0771 39.4408L4.00728 46.2738C3.31118 46.8415 2.28562 46.7354 1.71894 46.0362C1.44396 45.6969 1.31675 45.2702 1.3608 44.8347C1.40484 44.3992 1.61472 44.0071 1.95201 43.7304C1.95481 43.7281 1.95761 43.7258 1.96041 43.7234L9.15548 37.6247C9.25178 37.5432 9.32345 37.4361 9.36256 37.3157L11.9905 29.2217C12.8699 29.6875 13.9832 29.9421 15.34 29.995L12.0771 39.4408ZM30.2938 18.7844L22.1707 18.8196L20.3322 17.7681C20.1228 17.6484 19.8661 17.6497 19.6581 17.7715C19.45 17.8933 19.322 18.1172 19.322 18.3594V25.8173C19.322 25.9807 19.3804 26.1386 19.4865 26.2621L26.3891 34.2962L28.2366 44.7431C28.3047 45.1737 28.2025 45.6053 27.9488 45.959C27.6942 46.3141 27.3175 46.5481 26.8878 46.618C26.4587 46.6879 26.0274 46.5854 25.6745 46.3292C25.3216 46.0731 25.089 45.6942 25.0195 45.2621C25.019 45.2585 25.0183 45.2549 25.0177 45.2513L23.3651 35.9335C23.343 35.8088 23.2867 35.6928 23.2026 35.5986L17.2008 28.8722C17.0725 28.7285 16.8897 28.6464 16.6977 28.6464H15.8859C12.2157 28.6464 10.7858 27.33 10.7858 23.9513V16.7192C10.7858 14.8726 11.2562 11.7746 14.4066 11.7746C15.2935 11.7746 15.929 11.9056 16.4065 12.1869L22.7621 15.9319C22.8665 15.9934 22.9872 16.0241 23.1063 16.0252L30.2255 15.9979C30.229 15.9979 30.2325 15.9978 30.236 15.9978C30.6045 15.9899 30.9565 16.1286 31.2232 16.3867C31.4899 16.6448 31.6407 16.9919 31.6478 17.364C31.6624 18.131 31.0555 18.7673 30.2938 18.7844ZM10.6908 6.77382C10.7567 6.79441 10.8244 6.80452 10.8917 6.80452C10.9826 6.80452 11.0722 6.78421 11.1561 6.74826C11.8453 8.13414 13.2599 9.04225 14.8578 9.04225C17.1416 9.04225 18.9996 7.17317 18.9996 4.87568C18.9996 4.44145 18.9303 4.01372 18.8005 3.60534C19.6839 3.52381 20.6368 3.51896 21.6735 3.61058C22.0463 3.64352 22.3735 3.36679 22.4062 2.99261C22.4388 2.61842 22.1638 2.28835 21.7919 2.25551C20.765 2.16476 19.8135 2.1599 18.9267 2.22529C18.0372 0.842913 16.5135 0 14.8579 0C12.1854 0 10.0112 2.1872 10.0112 4.87568C10.0112 5.40067 10.0933 5.89787 10.2552 6.35338C10.3267 6.55461 10.488 6.71027 10.6908 6.77382ZM17.6474 4.87568C17.6474 6.42305 16.396 7.68193 14.8579 7.68193C13.7223 7.68193 12.7244 7.00157 12.2925 5.98085C13.7477 5.02716 15.3922 4.20223 17.4343 3.80161C17.5736 4.14014 17.6474 4.50431 17.6474 4.87568ZM14.8579 1.36032C15.8163 1.36032 16.7136 1.75229 17.3622 2.42283C14.9439 2.85998 13.041 3.84145 11.3646 4.96605C11.3639 4.93612 11.3635 4.906 11.3635 4.87568C11.3635 2.93732 12.9311 1.36032 14.8579 1.36032Z" fill="url(#paint0_linear_17892_4782)"/>
<defs>
<linearGradient id="paint0_linear_17892_4782" x1="31.9943" y1="12.2941" x2="-1.07238" y2="45.164" gradientUnits="userSpaceOnUse">
<stop stop-color="#E93528"/>
<stop offset="1" stop-color="#F8BC16"/>
</linearGradient>
</defs>
</svg>
