<?xml version="1.0" standalone="no"?>
<!DOCTYPE svg PUBLIC "-//W3C//DTD SVG 20010904//EN"
 "http://www.w3.org/TR/2001/REC-SVG-20010904/DTD/svg10.dtd">
<svg version="1.0" xmlns="http://www.w3.org/2000/svg"
 width="160.000000pt" height="160.000000pt" viewBox="0 0 160.000000 160.000000"
 preserveAspectRatio="xMidYMid meet">
<metadata>
Created by potrace 1.14, written by Peter Selinger 2001-2017
</metadata>
<g transform="translate(0.000000,160.000000) scale(0.100000,-0.100000)"
fill="#000000" stroke="none">
<path d="M354 1061 c-8 -52 -37 -98 -74 -119 -41 -23 -38 -42 5 -42 l35 0 0
-137 c1 -162 9 -210 45 -240 46 -40 144 -20 174 35 14 26 3 34 -23 17 -11 -8
-38 -15 -59 -15 -56 0 -67 33 -67 205 l0 135 65 0 c63 0 65 1 65 25 0 24 -2
25 -65 25 l-65 0 0 75 c0 60 -3 75 -15 75 -9 0 -17 -14 -21 -39z"/>
<path d="M969 1096 c-2 -2 -17 -6 -34 -9 -43 -8 -135 -34 -170 -48 -16 -7 -36
-13 -44 -15 -8 -1 -17 -6 -20 -11 -3 -4 -28 -19 -55 -33 -64 -33 -102 -81 -86
-109 15 -29 31 -26 65 9 41 43 55 39 55 -15 0 -42 -2 -46 -40 -65 -44 -23 -63
-50 -53 -77 11 -30 26 -33 60 -12 l33 21 0 -100 c0 -102 5 -132 21 -132 5 0
14 11 20 24 6 13 22 29 35 35 22 10 23 14 20 93 -4 108 2 122 58 138 25 7 44
16 41 20 -2 4 7 5 22 2 18 -3 24 -1 19 7 -7 11 5 15 32 12 6 -1 12 5 12 14 0
9 4 14 9 11 15 -10 36 23 23 36 -12 12 -113 -4 -171 -28 -18 -8 -37 -14 -42
-14 -5 0 -9 24 -9 54 l0 53 73 23 c39 13 89 24 111 25 32 1 44 7 69 39 25 31
28 39 16 47 -14 9 -62 12 -70 5z"/>
<path d="M1260 1020 c-17 -16 -30 -33 -30 -38 0 -5 -9 -21 -21 -36 l-21 -26
-30 41 c-27 37 -33 41 -61 35 -37 -7 -67 -33 -67 -56 0 -17 54 -99 73 -112 6
-3 -7 -33 -32 -70 -52 -79 -107 -192 -116 -238 -4 -23 -1 -41 7 -53 14 -18 15
-18 38 6 18 19 32 24 51 20 25 -5 26 -2 31 41 8 71 87 214 106 191 4 -5 21
-23 38 -38 l31 -28 31 25 c16 15 35 26 41 26 20 0 11 21 -34 79 l-45 58 50 74
c49 73 59 102 40 114 -27 17 -52 12 -80 -15z"/>
</g>
</svg>
